# base_link - generated by tools/generate_sim_meshes.py from cad/parameters/parameters.csv. Do not edit by hand: run the script. Units are metres.
o base_link
v -0.250000 -0.170000 0.125000
v -0.250000 -0.170000 0.250000
v -0.250000 0.170000 0.125000
v -0.250000 0.170000 0.250000
v 0.250000 -0.170000 0.125000
v 0.250000 -0.170000 0.250000
v 0.250000 0.170000 0.125000
v 0.250000 0.170000 0.250000
v -0.250000 -0.190000 0.250000
v -0.250000 -0.190000 0.405000
v -0.250000 0.190000 0.250000
v -0.250000 0.190000 0.405000
v 0.250000 -0.190000 0.250000
v 0.250000 -0.190000 0.405000
v 0.250000 0.190000 0.250000
v 0.250000 0.190000 0.405000
v 0.017500 0.000000 0.405000
v 0.017164 0.003414 0.405000
v 0.016168 0.006697 0.405000
v 0.014551 0.009722 0.405000
v 0.012374 0.012374 0.405000
v 0.009722 0.014551 0.405000
v 0.006697 0.016168 0.405000
v 0.003414 0.017164 0.405000
v 0.000000 0.017500 0.405000
v -0.003414 0.017164 0.405000
v -0.006697 0.016168 0.405000
v -0.009722 0.014551 0.405000
v -0.012374 0.012374 0.405000
v -0.014551 0.009722 0.405000
v -0.016168 0.006697 0.405000
v -0.017164 0.003414 0.405000
v -0.017500 0.000000 0.405000
v -0.017164 -0.003414 0.405000
v -0.016168 -0.006697 0.405000
v -0.014551 -0.009722 0.405000
v -0.012374 -0.012374 0.405000
v -0.009722 -0.014551 0.405000
v -0.006697 -0.016168 0.405000
v -0.003414 -0.017164 0.405000
v -0.000000 -0.017500 0.405000
v 0.003414 -0.017164 0.405000
v 0.006697 -0.016168 0.405000
v 0.009722 -0.014551 0.405000
v 0.012374 -0.012374 0.405000
v 0.014551 -0.009722 0.405000
v 0.016168 -0.006697 0.405000
v 0.017164 -0.003414 0.405000
v 0.017500 0.000000 0.905000
v 0.017164 0.003414 0.905000
v 0.016168 0.006697 0.905000
v 0.014551 0.009722 0.905000
v 0.012374 0.012374 0.905000
v 0.009722 0.014551 0.905000
v 0.006697 0.016168 0.905000
v 0.003414 0.017164 0.905000
v 0.000000 0.017500 0.905000
v -0.003414 0.017164 0.905000
v -0.006697 0.016168 0.905000
v -0.009722 0.014551 0.905000
v -0.012374 0.012374 0.905000
v -0.014551 0.009722 0.905000
v -0.016168 0.006697 0.905000
v -0.017164 0.003414 0.905000
v -0.017500 0.000000 0.905000
v -0.017164 -0.003414 0.905000
v -0.016168 -0.006697 0.905000
v -0.014551 -0.009722 0.905000
v -0.012374 -0.012374 0.905000
v -0.009722 -0.014551 0.905000
v -0.006697 -0.016168 0.905000
v -0.003414 -0.017164 0.905000
v -0.000000 -0.017500 0.905000
v 0.003414 -0.017164 0.905000
v 0.006697 -0.016168 0.905000
v 0.009722 -0.014551 0.905000
v 0.012374 -0.012374 0.905000
v 0.014551 -0.009722 0.905000
v 0.016168 -0.006697 0.905000
v 0.017164 -0.003414 0.905000
f 1 2 4 3
f 5 7 8 6
f 1 5 6 2
f 3 4 8 7
f 1 3 7 5
f 2 6 8 4
f 9 10 12 11
f 13 15 16 14
f 9 13 14 10
f 11 12 16 15
f 9 11 15 13
f 10 14 16 12
f 17 18 50 49
f 18 19 51 50
f 19 20 52 51
f 20 21 53 52
f 21 22 54 53
f 22 23 55 54
f 23 24 56 55
f 24 25 57 56
f 25 26 58 57
f 26 27 59 58
f 27 28 60 59
f 28 29 61 60
f 29 30 62 61
f 30 31 63 62
f 31 32 64 63
f 32 33 65 64
f 33 34 66 65
f 34 35 67 66
f 35 36 68 67
f 36 37 69 68
f 37 38 70 69
f 38 39 71 70
f 39 40 72 71
f 40 41 73 72
f 41 42 74 73
f 42 43 75 74
f 43 44 76 75
f 44 45 77 76
f 45 46 78 77
f 46 47 79 78
f 47 48 80 79
f 48 17 49 80
f 48 47 46 45 44 43 42 41 40 39 38 37 36 35 34 33 32 31 30 29 28 27 26 25 24 23 22 21 20 19 18 17
f 49 50 51 52 53 54 55 56 57 58 59 60 61 62 63 64 65 66 67 68 69 70 71 72 73 74 75 76 77 78 79 80
