# wheel - generated by tools/generate_sim_meshes.py from cad/parameters/parameters.csv. Do not edit by hand: run the script. Units are metres.
o wheel
v 0.125000 -0.045000 0.000000
v 0.122598 -0.045000 0.024386
v 0.115485 -0.045000 0.047835
v 0.103934 -0.045000 0.069446
v 0.088388 -0.045000 0.088388
v 0.069446 -0.045000 0.103934
v 0.047835 -0.045000 0.115485
v 0.024386 -0.045000 0.122598
v 0.000000 -0.045000 0.125000
v -0.024386 -0.045000 0.122598
v -0.047835 -0.045000 0.115485
v -0.069446 -0.045000 0.103934
v -0.088388 -0.045000 0.088388
v -0.103934 -0.045000 0.069446
v -0.115485 -0.045000 0.047835
v -0.122598 -0.045000 0.024386
v -0.125000 -0.045000 0.000000
v -0.122598 -0.045000 -0.024386
v -0.115485 -0.045000 -0.047835
v -0.103934 -0.045000 -0.069446
v -0.088388 -0.045000 -0.088388
v -0.069446 -0.045000 -0.103934
v -0.047835 -0.045000 -0.115485
v -0.024386 -0.045000 -0.122598
v -0.000000 -0.045000 -0.125000
v 0.024386 -0.045000 -0.122598
v 0.047835 -0.045000 -0.115485
v 0.069446 -0.045000 -0.103934
v 0.088388 -0.045000 -0.088388
v 0.103934 -0.045000 -0.069446
v 0.115485 -0.045000 -0.047835
v 0.122598 -0.045000 -0.024386
v 0.125000 0.045000 0.000000
v 0.122598 0.045000 0.024386
v 0.115485 0.045000 0.047835
v 0.103934 0.045000 0.069446
v 0.088388 0.045000 0.088388
v 0.069446 0.045000 0.103934
v 0.047835 0.045000 0.115485
v 0.024386 0.045000 0.122598
v 0.000000 0.045000 0.125000
v -0.024386 0.045000 0.122598
v -0.047835 0.045000 0.115485
v -0.069446 0.045000 0.103934
v -0.088388 0.045000 0.088388
v -0.103934 0.045000 0.069446
v -0.115485 0.045000 0.047835
v -0.122598 0.045000 0.024386
v -0.125000 0.045000 0.000000
v -0.122598 0.045000 -0.024386
v -0.115485 0.045000 -0.047835
v -0.103934 0.045000 -0.069446
v -0.088388 0.045000 -0.088388
v -0.069446 0.045000 -0.103934
v -0.047835 0.045000 -0.115485
v -0.024386 0.045000 -0.122598
v -0.000000 0.045000 -0.125000
v 0.024386 0.045000 -0.122598
v 0.047835 0.045000 -0.115485
v 0.069446 0.045000 -0.103934
v 0.088388 0.045000 -0.088388
v 0.103934 0.045000 -0.069446
v 0.115485 0.045000 -0.047835
v 0.122598 0.045000 -0.024386
f 1 2 34 33
f 2 3 35 34
f 3 4 36 35
f 4 5 37 36
f 5 6 38 37
f 6 7 39 38
f 7 8 40 39
f 8 9 41 40
f 9 10 42 41
f 10 11 43 42
f 11 12 44 43
f 12 13 45 44
f 13 14 46 45
f 14 15 47 46
f 15 16 48 47
f 16 17 49 48
f 17 18 50 49
f 18 19 51 50
f 19 20 52 51
f 20 21 53 52
f 21 22 54 53
f 22 23 55 54
f 23 24 56 55
f 24 25 57 56
f 25 26 58 57
f 26 27 59 58
f 27 28 60 59
f 28 29 61 60
f 29 30 62 61
f 30 31 63 62
f 31 32 64 63
f 32 1 33 64
f 32 31 30 29 28 27 26 25 24 23 22 21 20 19 18 17 16 15 14 13 12 11 10 9 8 7 6 5 4 3 2 1
f 33 34 35 36 37 38 39 40 41 42 43 44 45 46 47 48 49 50 51 52 53 54 55 56 57 58 59 60 61 62 63 64
